<?xml version="1.0" standalone="no"?>
<!DOCTYPE svg PUBLIC "-//W3C//DTD SVG 20010904//EN"
 "http://www.w3.org/TR/2001/REC-SVG-20010904/DTD/svg10.dtd">
<svg version="1.0" xmlns="http://www.w3.org/2000/svg"
 width="38.000000pt" height="38.000000pt" viewBox="0 0 38.000000 38.000000"
 preserveAspectRatio="xMidYMid meet">

<g transform="translate(0.000000,38.000000) scale(0.100000,-0.100000)"
fill="#ffffff" stroke="none">
<path d="M250 319 c-36 -15 -73 -29 -83 -29 -30 0 -167 -62 -167 -76 0 -7 19
-19 43 -26 30 -11 44 -21 48 -39 20 -86 48 -109 84 -69 23 26 31 25 72 -6 29
-22 37 -24 48 -13 15 16 69 265 60 279 -10 15 -35 10 -105 -21z m87 -2 c-3 -8
-15 -63 -27 -123 -12 -60 -26 -113 -31 -119 -6 -5 -9 -5 -9 2 0 6 -20 23 -45
37 -25 15 -45 32 -45 38 0 6 23 35 50 64 44 46 61 74 45 74 -3 0 -47 -21 -99
-47 -79 -39 -98 -45 -118 -36 -22 10 -21 11 22 30 25 11 70 28 100 38 30 10
75 26 100 36 56 22 63 22 57 6z m-156 -122 c-22 -24 -41 -54 -41 -65 0 -30
-17 -24 -29 11 -6 18 -11 33 -11 35 0 4 111 63 119 64 2 0 -15 -20 -38 -45z
m-12 -91 c-15 -18 -22 -13 -13 10 3 9 10 13 16 10 5 -3 4 -12 -3 -20z"/>
</g>
</svg>
